<svg width="161" height="31" viewBox="0 0 161 31" fill="none" xmlns="http://www.w3.org/2000/svg">
<path d="M0 29.5703V0.46875H22.5391V7.34375H8.125V11.7188H21.4258V18.3594H8.125V22.6953H22.5391V29.5703H0ZM33.4766 29.5703L23.7109 0.46875H32.6562L36.0352 11.7578C36.7643 14.2057 37.4674 16.6602 38.1445 19.1211C38.8216 21.569 39.4857 24.0169 40.1367 26.4648H37.7539C38.3789 24.0169 39.0104 21.569 39.6484 19.1211C40.2865 16.6602 40.957 14.2057 41.6602 11.7578L44.8828 0.46875H53.7109L44.2578 29.5703H33.4766ZM55.2734 29.5703V0.46875H77.8125V7.34375H63.3984V11.7188H76.6992V18.3594H63.3984V22.6953H77.8125V29.5703H55.2734ZM80.5469 29.5703V0.46875H88.8281L95.918 11.8945C96.2305 12.3893 96.6211 13.0664 97.0898 13.9258C97.5716 14.7721 98.0729 15.6836 98.5938 16.6602C99.1276 17.6367 99.6224 18.5547 100.078 19.4141L99.1016 21.6797C99.0365 20.625 98.9844 19.4271 98.9453 18.0859C98.9062 16.7318 98.8737 15.4297 98.8477 14.1797C98.8346 12.9167 98.8281 11.901 98.8281 11.1328V0.46875H106.953V29.5703H98.6719L92.0508 18.9453C91.6602 18.3073 91.1719 17.4935 90.5859 16.5039C90.013 15.5013 89.3945 14.388 88.7305 13.1641C88.0794 11.9401 87.4219 10.6901 86.7578 9.41406L88.3594 8.94531C88.4635 10.3125 88.5352 11.6536 88.5742 12.9688C88.6263 14.2839 88.6523 15.4622 88.6523 16.5039C88.6654 17.5456 88.6719 18.3594 88.6719 18.9453V29.5703H80.5469ZM109.297 7.34375V0.46875H133.984V7.34375H125.703V29.5703H117.578V7.34375H109.297ZM147.93 30.0391C145.247 30.0391 142.975 29.6484 141.113 28.8672C139.251 28.0859 137.839 26.9401 136.875 25.4297C135.911 23.9062 135.43 22.0573 135.43 19.8828H143.105C143.145 20.6641 143.366 21.3346 143.77 21.8945C144.186 22.4544 144.753 22.8841 145.469 23.1836C146.198 23.4831 147.051 23.6328 148.027 23.6328C148.887 23.6328 149.635 23.5286 150.273 23.3203C150.911 23.099 151.406 22.7995 151.758 22.4219C152.122 22.0312 152.305 21.582 152.305 21.0742C152.305 20.6055 152.135 20.1953 151.797 19.8438C151.458 19.4922 150.938 19.1862 150.234 18.9258C149.531 18.6654 148.633 18.431 147.539 18.2227L144.648 17.6758C141.836 17.1419 139.688 16.1523 138.203 14.707C136.719 13.2617 135.977 11.4583 135.977 9.29688C135.977 7.44792 136.478 5.82682 137.48 4.43359C138.483 3.04036 139.876 1.95312 141.66 1.17188C143.444 0.390625 145.514 0 147.871 0C150.293 0 152.376 0.384115 154.121 1.15234C155.866 1.92057 157.22 3.02734 158.184 4.47266C159.147 5.91797 159.661 7.65625 159.727 9.6875H152.266C152.174 8.67188 151.745 7.87109 150.977 7.28516C150.221 6.69922 149.238 6.40625 148.027 6.40625C147.272 6.40625 146.602 6.51693 146.016 6.73828C145.43 6.94661 144.967 7.23958 144.629 7.61719C144.303 7.98177 144.141 8.41146 144.141 8.90625C144.141 9.375 144.29 9.77214 144.59 10.0977C144.889 10.4232 145.358 10.7096 145.996 10.957C146.647 11.1914 147.474 11.3997 148.477 11.582L150.82 12.0117C152.487 12.3242 153.919 12.7214 155.117 13.2031C156.328 13.6849 157.318 14.2708 158.086 14.9609C158.854 15.651 159.421 16.4518 159.785 17.3633C160.15 18.2747 160.332 19.3099 160.332 20.4688C160.332 22.5 159.844 24.2318 158.867 25.6641C157.904 27.0833 156.497 28.1706 154.648 28.9258C152.799 29.668 150.56 30.0391 147.93 30.0391Z" fill="black"/>
</svg>
