<svg width="381" height="79" viewBox="0 0 381 79" fill="none" xmlns="http://www.w3.org/2000/svg">
<path d="M0 29.5703V0.46875H8.125V11.3477H17.8125V0.46875H25.9375V29.5703H17.8125V18.2227H8.125V29.5703H0ZM41.6016 30.0391C39.0625 30.0391 36.8555 29.5964 34.9805 28.7109C33.1055 27.8125 31.6471 26.556 30.6055 24.9414C29.5768 23.3138 29.0625 21.4062 29.0625 19.2188V0.46875H36.9531V18.5547C36.9531 19.4531 37.1549 20.2539 37.5586 20.957C37.9622 21.6471 38.5091 22.194 39.1992 22.5977C39.9023 23.0013 40.7031 23.2031 41.6016 23.2031C42.513 23.2031 43.3138 23.0078 44.0039 22.6172C44.707 22.2135 45.2539 21.6667 45.6445 20.9766C46.0482 20.2734 46.25 19.4661 46.25 18.5547V0.46875H54.1406V19.2188C54.1406 21.4062 53.6198 23.3138 52.5781 24.9414C51.5495 26.556 50.0977 27.8125 48.2227 28.7109C46.3477 29.5964 44.1406 30.0391 41.6016 30.0391ZM57.2656 29.5703V0.46875H65.5469L72.6367 11.8945C72.9492 12.3893 73.3398 13.0664 73.8086 13.9258C74.2904 14.7721 74.7917 15.6836 75.3125 16.6602C75.8464 17.6367 76.3411 18.5547 76.7969 19.4141L75.8203 21.6797C75.7552 20.625 75.7031 19.4271 75.6641 18.0859C75.625 16.7318 75.5924 15.4297 75.5664 14.1797C75.5534 12.9167 75.5469 11.901 75.5469 11.1328V0.46875H83.6719V29.5703H75.3906L68.7695 18.9453C68.3789 18.3073 67.8906 17.4935 67.3047 16.5039C66.7318 15.5013 66.1133 14.388 65.4492 13.1641C64.7982 11.9401 64.1406 10.6901 63.4766 9.41406L65.0781 8.94531C65.1823 10.3125 65.2539 11.6536 65.293 12.9688C65.3451 14.2839 65.3711 15.4622 65.3711 16.5039C65.3841 17.5456 65.3906 18.3594 65.3906 18.9453V29.5703H57.2656ZM86.0156 7.34375V0.46875H110.703V7.34375H102.422V29.5703H94.2969V7.34375H86.0156ZM121.172 0.46875V29.5703H113.047V0.46875H121.172ZM124.297 29.5703V0.46875H132.578L139.668 11.8945C139.98 12.3893 140.371 13.0664 140.84 13.9258C141.322 14.7721 141.823 15.6836 142.344 16.6602C142.878 17.6367 143.372 18.5547 143.828 19.4141L142.852 21.6797C142.786 20.625 142.734 19.4271 142.695 18.0859C142.656 16.7318 142.624 15.4297 142.598 14.1797C142.585 12.9167 142.578 11.901 142.578 11.1328V0.46875H150.703V29.5703H142.422L135.801 18.9453C135.41 18.3073 134.922 17.4935 134.336 16.5039C133.763 15.5013 133.145 14.388 132.48 13.1641C131.829 11.9401 131.172 10.6901 130.508 9.41406L132.109 8.94531C132.214 10.3125 132.285 11.6536 132.324 12.9688C132.376 14.2839 132.402 15.4622 132.402 16.5039C132.415 17.5456 132.422 18.3594 132.422 18.9453V29.5703H124.297ZM167.344 30.0391C164.453 30.0391 161.934 29.4271 159.785 28.2031C157.65 26.9792 155.99 25.2474 154.805 23.0078C153.633 20.7552 153.047 18.099 153.047 15.0391C153.047 11.7969 153.672 9.05599 154.922 6.81641C156.172 4.57682 157.865 2.88411 160 1.73828C162.148 0.579427 164.544 0 167.188 0C168.958 0 170.625 0.247396 172.188 0.742188C173.75 1.23698 175.13 1.95312 176.328 2.89062C177.539 3.8151 178.516 4.92188 179.258 6.21094C180 7.48698 180.436 8.91927 180.566 10.5078H172.285C172.181 9.96094 172.005 9.47266 171.758 9.04297C171.51 8.61328 171.185 8.2487 170.781 7.94922C170.391 7.64974 169.922 7.42188 169.375 7.26562C168.841 7.10938 168.223 7.03125 167.52 7.03125C166.152 7.03125 165 7.34375 164.062 7.96875C163.138 8.58073 162.435 9.47917 161.953 10.6641C161.484 11.849 161.25 13.3073 161.25 15.0391C161.25 16.7578 161.491 18.2096 161.973 19.3945C162.454 20.5794 163.171 21.4779 164.121 22.0898C165.072 22.7018 166.243 23.0078 167.637 23.0078C168.77 23.0078 169.72 22.8385 170.488 22.5C171.27 22.1615 171.855 21.6927 172.246 21.0938C172.65 20.4818 172.852 19.7721 172.852 18.9648L174.531 19.1211H167.578V13.3203H180.781V17.5195C180.781 20.0456 180.221 22.2461 179.102 24.1211C177.982 25.9961 176.413 27.4544 174.395 28.4961C172.389 29.5247 170.039 30.0391 167.344 30.0391ZM181.367 7.34375V0.46875H206.055V7.34375H197.773V29.5703H189.648V7.34375H181.367ZM220.391 30.0391C217.747 30.0391 215.352 29.4596 213.203 28.3008C211.068 27.1419 209.375 25.4492 208.125 23.2227C206.875 20.9831 206.25 18.2552 206.25 15.0391C206.25 11.7969 206.875 9.05599 208.125 6.81641C209.375 4.57682 211.068 2.88411 213.203 1.73828C215.352 0.579427 217.747 0 220.391 0C223.034 0 225.423 0.579427 227.559 1.73828C229.694 2.88411 231.387 4.57682 232.637 6.81641C233.9 9.05599 234.531 11.7969 234.531 15.0391C234.531 18.2682 233.9 21.0026 232.637 23.2422C231.387 25.4688 229.694 27.1615 227.559 28.3203C225.423 29.4661 223.034 30.0391 220.391 30.0391ZM220.391 23.0078C221.667 23.0078 222.747 22.6953 223.633 22.0703C224.518 21.4323 225.189 20.5208 225.645 19.3359C226.1 18.138 226.328 16.7057 226.328 15.0391C226.328 13.3594 226.1 11.9206 225.645 10.7227C225.189 9.52474 224.518 8.61328 223.633 7.98828C222.747 7.35026 221.667 7.03125 220.391 7.03125C219.128 7.03125 218.053 7.35026 217.168 7.98828C216.283 8.61328 215.605 9.52474 215.137 10.7227C214.681 11.9206 214.453 13.3594 214.453 15.0391C214.453 16.7057 214.681 18.138 215.137 19.3359C215.605 20.5208 216.283 21.4323 217.168 22.0703C218.053 22.6953 219.128 23.0078 220.391 23.0078ZM236.875 29.5703V0.46875H245.156L252.246 11.8945C252.559 12.3893 252.949 13.0664 253.418 13.9258C253.9 14.7721 254.401 15.6836 254.922 16.6602C255.456 17.6367 255.951 18.5547 256.406 19.4141L255.43 21.6797C255.365 20.625 255.312 19.4271 255.273 18.0859C255.234 16.7318 255.202 15.4297 255.176 14.1797C255.163 12.9167 255.156 11.901 255.156 11.1328V0.46875H263.281V29.5703H255L248.379 18.9453C247.988 18.3073 247.5 17.4935 246.914 16.5039C246.341 15.5013 245.723 14.388 245.059 13.1641C244.408 11.9401 243.75 10.6901 243.086 9.41406L244.688 8.94531C244.792 10.3125 244.863 11.6536 244.902 12.9688C244.954 14.2839 244.98 15.4622 244.98 16.5039C244.993 17.5456 245 18.3594 245 18.9453V29.5703H236.875ZM273.75 29.5703V0.46875H286.113C288.431 0.46875 290.436 0.885417 292.129 1.71875C293.822 2.53906 295.124 3.71094 296.035 5.23438C296.96 6.74479 297.422 8.54167 297.422 10.625C297.422 12.6953 296.96 14.4922 296.035 16.0156C295.124 17.5391 293.822 18.7174 292.129 19.5508C290.436 20.3711 288.431 20.7812 286.113 20.7812H278.418V14.1016H285.508C286.328 14.1016 287.031 13.9583 287.617 13.6719C288.216 13.3854 288.678 12.9818 289.004 12.4609C289.329 11.9401 289.492 11.3281 289.492 10.625C289.492 9.90885 289.329 9.29688 289.004 8.78906C288.678 8.26823 288.216 7.86458 287.617 7.57812C287.031 7.29167 286.328 7.14844 285.508 7.14844H281.875V29.5703H273.75ZM294.453 29.5703L304.219 0.46875H315.156L325.02 29.5703H315.879L312.617 18.2812C311.914 15.8333 311.23 13.418 310.566 11.0352C309.902 8.63932 309.258 6.15234 308.633 3.57422H310.82C310.169 6.15234 309.505 8.63932 308.828 11.0352C308.151 13.418 307.448 15.8333 306.719 18.2812L303.34 29.5703H294.453ZM301.738 24.7852V18.5352H317.754V24.7852H301.738ZM326.602 29.5703V0.46875H338.965C341.283 0.46875 343.288 0.885417 344.98 1.71875C346.673 2.53906 347.975 3.71094 348.887 5.23438C349.811 6.74479 350.273 8.54167 350.273 10.625C350.273 12.6432 349.792 14.388 348.828 15.8594C347.878 17.3307 346.523 18.4701 344.766 19.2773C343.021 20.0716 340.944 20.4688 338.535 20.4688H331.602V14.1797H338.359C339.18 14.1797 339.883 14.0299 340.469 13.7305C341.068 13.431 341.53 13.0143 341.855 12.4805C342.181 11.9466 342.344 11.3281 342.344 10.625C342.344 9.90885 342.181 9.29036 341.855 8.76953C341.53 8.23568 341.068 7.81901 340.469 7.51953C339.883 7.22005 339.18 7.07031 338.359 7.07031H334.727V29.5703H326.602ZM342.715 29.5703L336.387 16.3672H344.688L351.172 29.5703H342.715ZM359.238 25.4102V15.5469C359.889 14.7005 360.54 13.8542 361.191 13.0078C361.855 12.1615 362.513 11.3216 363.164 10.4883C363.815 9.64193 364.466 8.79557 365.117 7.94922L370.898 0.46875H380.293L368.125 15.4492H367.383L359.238 25.4102ZM353.242 29.5703V0.46875H361.367V6.71875V15.0977V18.9453V29.5703H353.242ZM371.543 29.5703L364.531 17.8711L369.375 11.7773L380.84 29.5703H371.543ZM0 77.5703V48.4688H12.3633C14.681 48.4688 16.6862 48.8854 18.3789 49.7188C20.0716 50.5391 21.3737 51.7109 22.2852 53.2344C23.2096 54.7448 23.6719 56.5417 23.6719 58.625C23.6719 60.6432 23.1901 62.388 22.2266 63.8594C21.276 65.3307 19.9219 66.4701 18.1641 67.2773C16.4193 68.0716 14.3424 68.4688 11.9336 68.4688H5V62.1797H11.7578C12.5781 62.1797 13.2812 62.0299 13.8672 61.7305C14.4661 61.431 14.9284 61.0143 15.2539 60.4805C15.5794 59.9466 15.7422 59.3281 15.7422 58.625C15.7422 57.9089 15.5794 57.2904 15.2539 56.7695C14.9284 56.2357 14.4661 55.819 13.8672 55.5195C13.2812 55.2201 12.5781 55.0703 11.7578 55.0703H8.125V77.5703H0ZM16.1133 77.5703L9.78516 64.3672H18.0859L24.5703 77.5703H16.1133ZM39.1797 78.0391C36.6406 78.0391 34.4336 77.5964 32.5586 76.7109C30.6836 75.8125 29.2253 74.556 28.1836 72.9414C27.1549 71.3138 26.6406 69.4062 26.6406 67.2188V48.4688H34.5312V66.5547C34.5312 67.4531 34.7331 68.2539 35.1367 68.957C35.5404 69.6471 36.0872 70.194 36.7773 70.5977C37.4805 71.0013 38.2812 71.2031 39.1797 71.2031C40.0911 71.2031 40.8919 71.0078 41.582 70.6172C42.2852 70.2135 42.832 69.6667 43.2227 68.9766C43.6263 68.2734 43.8281 67.4661 43.8281 66.5547V48.4688H51.7188V67.2188C51.7188 69.4062 51.1979 71.3138 50.1562 72.9414C49.1276 74.556 47.6758 75.8125 45.8008 76.7109C43.9258 77.5964 41.7188 78.0391 39.1797 78.0391ZM54.8438 77.5703V48.4688H63.125L70.2148 59.8945C70.5273 60.3893 70.918 61.0664 71.3867 61.9258C71.8685 62.7721 72.3698 63.6836 72.8906 64.6602C73.4245 65.6367 73.9193 66.5547 74.375 67.4141L73.3984 69.6797C73.3333 68.625 73.2812 67.4271 73.2422 66.0859C73.2031 64.7318 73.1706 63.4297 73.1445 62.1797C73.1315 60.9167 73.125 59.901 73.125 59.1328V48.4688H81.25V77.5703H72.9688L66.3477 66.9453C65.957 66.3073 65.4688 65.4935 64.8828 64.5039C64.3099 63.5013 63.6914 62.388 63.0273 61.1641C62.3763 59.9401 61.7188 58.6901 61.0547 57.4141L62.6562 56.9453C62.7604 58.3125 62.832 59.6536 62.8711 60.9688C62.9232 62.2839 62.9492 63.4622 62.9492 64.5039C62.9622 65.5456 62.9688 66.3594 62.9688 66.9453V77.5703H54.8438ZM105.078 78.0391C102.435 78.0391 100.039 77.4596 97.8906 76.3008C95.7552 75.1419 94.0625 73.4492 92.8125 71.2227C91.5625 68.9831 90.9375 66.2552 90.9375 63.0391C90.9375 59.7969 91.5625 57.056 92.8125 54.8164C94.0625 52.5768 95.7552 50.8841 97.8906 49.7383C100.039 48.5794 102.435 48 105.078 48C106.94 48 108.652 48.2734 110.215 48.8203C111.777 49.3672 113.145 50.1419 114.316 51.1445C115.501 52.1471 116.458 53.3516 117.188 54.7578C117.93 56.1641 118.398 57.7266 118.594 59.4453H110.41C110.293 58.7552 110.085 58.1367 109.785 57.5898C109.499 57.043 109.134 56.5807 108.691 56.2031C108.249 55.8255 107.734 55.5391 107.148 55.3438C106.576 55.1354 105.938 55.0312 105.234 55.0312C103.919 55.0312 102.806 55.3438 101.895 55.9688C100.996 56.5938 100.312 57.5052 99.8438 58.7031C99.375 59.888 99.1406 61.3333 99.1406 63.0391C99.1406 64.7318 99.3685 66.1706 99.8242 67.3555C100.293 68.5404 100.983 69.4453 101.895 70.0703C102.806 70.6953 103.919 71.0078 105.234 71.0078C105.938 71.0078 106.576 70.9102 107.148 70.7148C107.721 70.5195 108.229 70.2331 108.672 69.8555C109.115 69.4648 109.479 69.0026 109.766 68.4688C110.065 67.9219 110.28 67.3099 110.41 66.6328H118.594C118.385 68.3516 117.917 69.9141 117.188 71.3203C116.458 72.7135 115.501 73.9115 114.316 74.9141C113.132 75.9167 111.758 76.6914 110.195 77.2383C108.646 77.7721 106.94 78.0391 105.078 78.0391ZM120.898 77.5703V48.4688H129.023V70.6953H141.562V77.5703H120.898ZM156.445 78.0391C153.906 78.0391 151.699 77.5964 149.824 76.7109C147.949 75.8125 146.491 74.556 145.449 72.9414C144.421 71.3138 143.906 69.4062 143.906 67.2188V48.4688H151.797V66.5547C151.797 67.4531 151.999 68.2539 152.402 68.957C152.806 69.6471 153.353 70.194 154.043 70.5977C154.746 71.0013 155.547 71.2031 156.445 71.2031C157.357 71.2031 158.158 71.0078 158.848 70.6172C159.551 70.2135 160.098 69.6667 160.488 68.9766C160.892 68.2734 161.094 67.4661 161.094 66.5547V48.4688H168.984V67.2188C168.984 69.4062 168.464 71.3138 167.422 72.9414C166.393 74.556 164.941 75.8125 163.066 76.7109C161.191 77.5964 158.984 78.0391 156.445 78.0391ZM172.109 77.5703V48.4688H184.727C186.94 48.4688 188.802 48.7812 190.312 49.4062C191.823 50.0312 192.962 50.8906 193.73 51.9844C194.499 53.0651 194.883 54.3151 194.883 55.7344C194.883 56.8542 194.648 57.8698 194.18 58.7812C193.711 59.6797 193.053 60.4284 192.207 61.0273C191.374 61.6133 190.391 62.0169 189.258 62.2383V62.2773C190.508 62.3164 191.628 62.6419 192.617 63.2539C193.62 63.8529 194.408 64.6732 194.98 65.7148C195.566 66.7565 195.859 67.9609 195.859 69.3281C195.859 70.9167 195.462 72.3359 194.668 73.5859C193.874 74.8229 192.728 75.7995 191.23 76.5156C189.733 77.2188 187.93 77.5703 185.82 77.5703H172.109ZM180 71.4766H184.297C185.286 71.4766 186.074 71.2161 186.66 70.6953C187.246 70.1745 187.539 69.4779 187.539 68.6055C187.539 68.0195 187.402 67.5117 187.129 67.082C186.868 66.6523 186.497 66.3203 186.016 66.0859C185.534 65.8516 184.961 65.7344 184.297 65.7344H180V71.4766ZM180 59.9922H183.809C184.408 59.9922 184.928 59.8815 185.371 59.6602C185.814 59.4388 186.152 59.1263 186.387 58.7227C186.634 58.306 186.758 57.8242 186.758 57.2773C186.758 56.457 186.491 55.7995 185.957 55.3047C185.423 54.8099 184.707 54.5625 183.809 54.5625H180V59.9922Z" fill="black"/>
</svg>
